<?xml version="1.0" encoding="UTF-8"?>
<svg width="283px" height="121px" viewBox="0 0 283 121" version="1.1" xmlns="http://www.w3.org/2000/svg" xmlns:xlink="http://www.w3.org/1999/xlink">
    <title>Group 2</title>
    <g id="Page-1" stroke="none" stroke-width="1" fill="none" fill-rule="evenodd">
        <g id="Desktop-HD" transform="translate(-1130.000000, -1074.000000)" fill="#D8D8D8">
            <g id="Motifs" transform="translate(402.000000, 147.000000)">
                <g id="Group-2" transform="translate(869.500000, 987.500000) rotate(-180.000000) translate(-869.500000, -987.500000) translate(728.000000, 927.000000)">
                    <polygon id="Fill-1" points="45.242 33.8389831 45.758 33.8389831 45.758 28.7118644 45.242 28.7118644"></polygon>
                    <polygon id="Fill-2" points="44 31.5415212 49 31.5415212 49 31.0093263 44 31.0093263"></polygon>
                    <polygon id="Fill-3" points="45.242 56.3983051 45.758 56.3983051 45.758 51.2711864 45.242 51.2711864"></polygon>
                    <polygon id="Fill-4" points="44 53.0738814 49 53.0738814 49 52.5447627 44 52.5447627"></polygon>
                    <polygon id="Fill-5" points="45.242 76.9067797 45.758 76.9067797 45.758 71.779661 45.242 71.779661"></polygon>
                    <polygon id="Fill-6" points="44 74.6077797 49 74.6077797 49 74.078661 44 74.078661"></polygon>
                    <polygon id="Fill-7" points="45.242 98.440678 45.758 98.440678 45.758 93.3135593 45.242 93.3135593"></polygon>
                    <polygon id="Fill-8" points="44 97.1686398 49 97.1686398 49 96.6364449 44 96.6364449"></polygon>
                    <polygon id="Fill-9" points="45.242 121 45.758 121 45.758 115.872881 45.242 115.872881"></polygon>
                    <polygon id="Fill-10" points="44 119.726424 49 119.726424 49 119.197305 44 119.197305"></polygon>
                    <polygon id="Fill-11" points="66.2405 33.8389831 66.7595 33.8389831 66.7595 28.7118644 66.2405 28.7118644"></polygon>
                    <polygon id="Fill-12" points="65 31.5415212 70 31.5415212 70 31.0093263 65 31.0093263"></polygon>
                    <polygon id="Fill-13" points="66.2405 56.3983051 66.7595 56.3983051 66.7595 51.2711864 66.2405 51.2711864"></polygon>
                    <polygon id="Fill-14" points="65 53.0738814 70 53.0738814 70 52.5447627 65 52.5447627"></polygon>
                    <polygon id="Fill-15" points="66.2405 76.9067797 66.7595 76.9067797 66.7595 71.779661 66.2405 71.779661"></polygon>
                    <polygon id="Fill-16" points="65 74.6077797 70 74.6077797 70 74.078661 65 74.078661"></polygon>
                    <polygon id="Fill-17" points="66.2405 98.440678 66.7595 98.440678 66.7595 93.3135593 66.2405 93.3135593"></polygon>
                    <polygon id="Fill-18" points="65 97.1686398 70 97.1686398 70 96.6364449 65 96.6364449"></polygon>
                    <polygon id="Fill-19" points="66.2405 121 66.7595 121 66.7595 115.872881 66.2405 115.872881"></polygon>
                    <polygon id="Fill-20" points="65 119.726424 70 119.726424 70 119.197305 65 119.197305"></polygon>
                    <polygon id="Fill-21" points="88.242 33.8389831 88.758 33.8389831 88.758 28.7118644 88.242 28.7118644"></polygon>
                    <polygon id="Fill-22" points="85 31.5415212 90 31.5415212 90 31.0093263 85 31.0093263"></polygon>
                    <polygon id="Fill-23" points="88.242 56.3983051 88.758 56.3983051 88.758 51.2711864 88.242 51.2711864"></polygon>
                    <polygon id="Fill-24" points="85 53.0738814 90 53.0738814 90 52.5447627 85 52.5447627"></polygon>
                    <polygon id="Fill-25" points="88.242 76.9067797 88.758 76.9067797 88.758 71.779661 88.242 71.779661"></polygon>
                    <polygon id="Fill-26" points="85 74.6077797 90 74.6077797 90 74.078661 85 74.078661"></polygon>
                    <polygon id="Fill-27" points="88.242 98.440678 88.758 98.440678 88.758 93.3135593 88.242 93.3135593"></polygon>
                    <polygon id="Fill-28" points="85 97.1686398 90 97.1686398 90 96.6364449 85 96.6364449"></polygon>
                    <polygon id="Fill-29" points="88.242 121 88.758 121 88.758 115.872881 88.242 115.872881"></polygon>
                    <polygon id="Fill-30" points="85 119.726424 90 119.726424 90 119.197305 85 119.197305"></polygon>
                    <polygon id="Fill-31" points="1 74.6077797 6 74.6077797 6 74.078661 1 74.078661"></polygon>
                    <polygon id="Fill-32" points="2.242 76.9067797 2.758 76.9067797 2.758 71.779661 2.242 71.779661"></polygon>
                    <polygon id="Fill-33" points="22 74.6077797 27 74.6077797 27 74.078661 22 74.078661"></polygon>
                    <polygon id="Fill-34" points="24.242 76.9067797 24.758 76.9067797 24.758 71.779661 24.242 71.779661"></polygon>
                    <polygon id="Fill-35" points="24.242 33.8389831 24.758 33.8389831 24.758 28.7118644 24.242 28.7118644"></polygon>
                    <polygon id="Fill-36" points="22 31.5415212 27 31.5415212 27 31.0093263 22 31.0093263"></polygon>
                    <polygon id="Fill-37" points="24.242 56.3983051 24.758 56.3983051 24.758 51.2711864 24.242 51.2711864"></polygon>
                    <polygon id="Fill-38" points="22 53.0738814 27 53.0738814 27 52.5447627 22 52.5447627"></polygon>
                    <polygon id="Fill-39" points="24.242 76.9067797 24.758 76.9067797 24.758 71.779661 24.242 71.779661"></polygon>
                    <polygon id="Fill-40" points="22 74.6077797 27 74.6077797 27 74.078661 22 74.078661"></polygon>
                    <polygon id="Fill-41" points="24.242 98.440678 24.758 98.440678 24.758 93.3135593 24.242 93.3135593"></polygon>
                    <polygon id="Fill-42" points="22 97.1686398 27 97.1686398 27 96.6364449 22 96.6364449"></polygon>
                    <polygon id="Fill-43" points="24.242 121 24.758 121 24.758 115.872881 24.242 115.872881"></polygon>
                    <polygon id="Fill-44" points="22 119.726424 27 119.726424 27 119.197305 22 119.197305"></polygon>
                    <polygon id="Fill-45" points="2.242 33.8389831 2.758 33.8389831 2.758 28.7118644 2.242 28.7118644"></polygon>
                    <polygon id="Fill-46" points="1 31.5415212 6 31.5415212 6 31.0093263 1 31.0093263"></polygon>
                    <polygon id="Fill-47" points="2.242 56.3983051 2.758 56.3983051 2.758 51.2711864 2.242 51.2711864"></polygon>
                    <polygon id="Fill-48" points="1 53.0738814 6 53.0738814 6 52.5447627 1 52.5447627"></polygon>
                    <polygon id="Fill-49" points="2.242 76.9067797 2.758 76.9067797 2.758 71.779661 2.242 71.779661"></polygon>
                    <polygon id="Fill-50" points="1 74.6077797 6 74.6077797 6 74.078661 1 74.078661"></polygon>
                    <polygon id="Fill-51" points="2.242 98.440678 2.758 98.440678 2.758 93.3135593 2.242 93.3135593"></polygon>
                    <polygon id="Fill-52" points="1 97.1686398 6 97.1686398 6 96.6364449 1 96.6364449"></polygon>
                    <polygon id="Fill-53" points="2.242 121 2.758 121 2.758 115.872881 2.242 115.872881"></polygon>
                    <polygon id="Fill-54" points="1 119.726424 6 119.726424 6 119.197305 1 119.197305"></polygon>
                    <polygon id="Fill-55" points="44.242 33.8389831 44.758 33.8389831 44.758 28.7118644 44.242 28.7118644"></polygon>
                    <polygon id="Fill-56" points="41 31.5415212 46 31.5415212 46 31.0093263 41 31.0093263"></polygon>
                    <polygon id="Fill-57" points="44.242 56.3983051 44.758 56.3983051 44.758 51.2711864 44.242 51.2711864"></polygon>
                    <polygon id="Fill-58" points="41 53.0738814 46 53.0738814 46 52.5447627 41 52.5447627"></polygon>
                    <polygon id="Fill-59" points="44.242 76.9067797 44.758 76.9067797 44.758 71.779661 44.242 71.779661"></polygon>
                    <polygon id="Fill-60" points="41 74.6077797 46 74.6077797 46 74.078661 41 74.078661"></polygon>
                    <polygon id="Fill-61" points="44.242 98.440678 44.758 98.440678 44.758 93.3135593 44.242 93.3135593"></polygon>
                    <polygon id="Fill-62" points="41 97.1686398 46 97.1686398 46 96.6364449 41 96.6364449"></polygon>
                    <polygon id="Fill-63" points="44.242 121 44.758 121 44.758 115.872881 44.242 115.872881"></polygon>
                    <polygon id="Fill-64" points="41 119.726424 46 119.726424 46 119.197305 41 119.197305"></polygon>
                    <polygon id="Fill-65" points="66.242 33.8389831 66.758 33.8389831 66.758 28.7118644 66.242 28.7118644"></polygon>
                    <polygon id="Fill-66" points="63 31.5415212 68 31.5415212 68 31.0093263 63 31.0093263"></polygon>
                    <polygon id="Fill-67" points="66.242 56.3983051 66.758 56.3983051 66.758 51.2711864 66.242 51.2711864"></polygon>
                    <polygon id="Fill-68" points="63 53.0738814 68 53.0738814 68 52.5447627 63 52.5447627"></polygon>
                    <polygon id="Fill-69" points="66.242 76.9067797 66.758 76.9067797 66.758 71.779661 66.242 71.779661"></polygon>
                    <polygon id="Fill-70" points="63 74.6077797 68 74.6077797 68 74.078661 63 74.078661"></polygon>
                    <polygon id="Fill-71" points="66.242 98.440678 66.758 98.440678 66.758 93.3135593 66.242 93.3135593"></polygon>
                    <polygon id="Fill-72" points="63 97.1686398 68 97.1686398 68 96.6364449 63 96.6364449"></polygon>
                    <polygon id="Fill-73" points="66.242 121 66.758 121 66.758 115.872881 66.242 115.872881"></polygon>
                    <polygon id="Fill-74" points="63 119.726424 68 119.726424 68 119.197305 63 119.197305"></polygon>
                    <polygon id="Fill-75" points="87.2405 33.8389831 87.7595 33.8389831 87.7595 28.7118644 87.2405 28.7118644"></polygon>
                    <polygon id="Fill-76" points="85 31.5415212 90 31.5415212 90 31.0093263 85 31.0093263"></polygon>
                    <polygon id="Fill-77" points="87.2405 56.3983051 87.7595 56.3983051 87.7595 51.2711864 87.2405 51.2711864"></polygon>
                    <polygon id="Fill-78" points="85 53.0738814 90 53.0738814 90 52.5447627 85 52.5447627"></polygon>
                    <polygon id="Fill-79" points="87.2405 76.9067797 87.7595 76.9067797 87.7595 71.779661 87.2405 71.779661"></polygon>
                    <polygon id="Fill-80" points="85 74.6077797 90 74.6077797 90 74.078661 85 74.078661"></polygon>
                    <polygon id="Fill-81" points="87.2405 98.440678 87.7595 98.440678 87.7595 93.3135593 87.2405 93.3135593"></polygon>
                    <polygon id="Fill-82" points="85 97.1686398 90 97.1686398 90 96.6364449 85 96.6364449"></polygon>
                    <polygon id="Fill-83" points="87.2405 121 87.7595 121 87.7595 115.872881 87.2405 115.872881"></polygon>
                    <polygon id="Fill-84" points="85 119.726424 90 119.726424 90 119.197305 85 119.197305"></polygon>
                    <polygon id="Fill-85" points="0 74.6077797 5 74.6077797 5 74.078661 0 74.078661"></polygon>
                    <polygon id="Fill-86" points="1.242 76.9067797 1.758 76.9067797 1.758 71.779661 1.242 71.779661"></polygon>
                    <polygon id="Fill-87" points="22 74.6077797 27 74.6077797 27 74.078661 22 74.078661"></polygon>
                    <polygon id="Fill-88" points="23.242 76.9067797 23.758 76.9067797 23.758 71.779661 23.242 71.779661"></polygon>
                    <polygon id="Fill-89" points="23.242 33.8389831 23.758 33.8389831 23.758 28.7118644 23.242 28.7118644"></polygon>
                    <polygon id="Fill-90" points="22 31.5415212 27 31.5415212 27 31.0093263 22 31.0093263"></polygon>
                    <polygon id="Fill-91" points="23.242 56.3983051 23.758 56.3983051 23.758 51.2711864 23.242 51.2711864"></polygon>
                    <polygon id="Fill-92" points="22 53.0738814 27 53.0738814 27 52.5447627 22 52.5447627"></polygon>
                    <polygon id="Fill-93" points="23.242 76.9067797 23.758 76.9067797 23.758 71.779661 23.242 71.779661"></polygon>
                    <polygon id="Fill-94" points="22 74.6077797 27 74.6077797 27 74.078661 22 74.078661"></polygon>
                    <polygon id="Fill-95" points="23.242 98.440678 23.758 98.440678 23.758 93.3135593 23.242 93.3135593"></polygon>
                    <polygon id="Fill-96" points="22 97.1686398 27 97.1686398 27 96.6364449 22 96.6364449"></polygon>
                    <polygon id="Fill-97" points="23.242 121 23.758 121 23.758 115.872881 23.242 115.872881"></polygon>
                    <polygon id="Fill-98" points="22 119.726424 27 119.726424 27 119.197305 22 119.197305"></polygon>
                    <polygon id="Fill-99" points="1.242 33.8389831 1.758 33.8389831 1.758 28.7118644 1.242 28.7118644"></polygon>
                    <polygon id="Fill-100" points="0 31.5415212 5 31.5415212 5 31.0093263 0 31.0093263"></polygon>
                    <polygon id="Fill-101" points="1.242 56.3983051 1.758 56.3983051 1.758 51.2711864 1.242 51.2711864"></polygon>
                    <polygon id="Fill-102" points="0 53.0738814 5 53.0738814 5 52.5447627 0 52.5447627"></polygon>
                    <polygon id="Fill-103" points="1.242 76.9067797 1.758 76.9067797 1.758 71.779661 1.242 71.779661"></polygon>
                    <polygon id="Fill-104" points="0 74.6077797 5 74.6077797 5 74.078661 0 74.078661"></polygon>
                    <polygon id="Fill-105" points="1.242 98.440678 1.758 98.440678 1.758 93.3135593 1.242 93.3135593"></polygon>
                    <polygon id="Fill-106" points="0 97.1686398 5 97.1686398 5 96.6364449 0 96.6364449"></polygon>
                    <polygon id="Fill-107" points="1.242 121 1.758 121 1.758 115.872881 1.242 115.872881"></polygon>
                    <polygon id="Fill-108" points="2.27373675e-13 119.726424 5 119.726424 5 119.197305 2.27373675e-13 119.197305"></polygon>
                    <polygon id="Fill-109" points="45.2405 33.8389831 45.7595 33.8389831 45.7595 28.7118644 45.2405 28.7118644"></polygon>
                    <polygon id="Fill-110" points="43 31.5415212 48 31.5415212 48 31.0093263 43 31.0093263"></polygon>
                    <polygon id="Fill-111" points="45.2405 56.3983051 45.7595 56.3983051 45.7595 51.2711864 45.2405 51.2711864"></polygon>
                    <polygon id="Fill-112" points="43 53.0738814 48 53.0738814 48 52.5447627 43 52.5447627"></polygon>
                    <polygon id="Fill-113" points="45.2405 76.9067797 45.7595 76.9067797 45.7595 71.779661 45.2405 71.779661"></polygon>
                    <polygon id="Fill-114" points="43 74.6077797 48 74.6077797 48 74.078661 43 74.078661"></polygon>
                    <polygon id="Fill-115" points="45.2405 98.440678 45.7595 98.440678 45.7595 93.3135593 45.2405 93.3135593"></polygon>
                    <polygon id="Fill-116" points="43 97.1686398 48 97.1686398 48 96.6364449 43 96.6364449"></polygon>
                    <polygon id="Fill-117" points="45.2405 121 45.7595 121 45.7595 115.872881 45.2405 115.872881"></polygon>
                    <polygon id="Fill-118" points="43 119.726424 48 119.726424 48 119.197305 43 119.197305"></polygon>
                    <polygon id="Fill-119" points="66.242 33.8389831 66.758 33.8389831 66.758 28.7118644 66.242 28.7118644"></polygon>
                    <polygon id="Fill-120" points="65 31.5415212 70 31.5415212 70 31.0093263 65 31.0093263"></polygon>
                    <polygon id="Fill-121" points="66.242 56.3983051 66.758 56.3983051 66.758 51.2711864 66.242 51.2711864"></polygon>
                    <polygon id="Fill-122" points="65 53.0738814 70 53.0738814 70 52.5447627 65 52.5447627"></polygon>
                    <polygon id="Fill-123" points="66.242 76.9067797 66.758 76.9067797 66.758 71.779661 66.242 71.779661"></polygon>
                    <polygon id="Fill-124" points="65 74.6077797 70 74.6077797 70 74.078661 65 74.078661"></polygon>
                    <polygon id="Fill-125" points="66.242 98.440678 66.758 98.440678 66.758 93.3135593 66.242 93.3135593"></polygon>
                    <polygon id="Fill-126" points="65 97.1686398 70 97.1686398 70 96.6364449 65 96.6364449"></polygon>
                    <polygon id="Fill-127" points="66.242 121 66.758 121 66.758 115.872881 66.242 115.872881"></polygon>
                    <polygon id="Fill-128" points="65 119.726424 70 119.726424 70 119.197305 65 119.197305"></polygon>
                    <polygon id="Fill-129" points="87.242 33.8389831 87.758 33.8389831 87.758 28.7118644 87.242 28.7118644"></polygon>
                    <polygon id="Fill-130" points="85 31.5415212 90 31.5415212 90 31.0093263 85 31.0093263"></polygon>
                    <polygon id="Fill-131" points="87.242 56.3983051 87.758 56.3983051 87.758 51.2711864 87.242 51.2711864"></polygon>
                    <polygon id="Fill-132" points="85 53.0738814 90 53.0738814 90 52.5447627 85 52.5447627"></polygon>
                    <polygon id="Fill-133" points="87.242 76.9067797 87.758 76.9067797 87.758 71.779661 87.242 71.779661"></polygon>
                    <polygon id="Fill-134" points="85 74.6077797 90 74.6077797 90 74.078661 85 74.078661"></polygon>
                    <polygon id="Fill-135" points="87.242 98.440678 87.758 98.440678 87.758 93.3135593 87.242 93.3135593"></polygon>
                    <polygon id="Fill-136" points="85 97.1686398 90 97.1686398 90 96.6364449 85 96.6364449"></polygon>
                    <polygon id="Fill-137" points="87.242 121 87.758 121 87.758 115.872881 87.242 115.872881"></polygon>
                    <polygon id="Fill-138" points="85 119.726424 90 119.726424 90 119.197305 85 119.197305"></polygon>
                    <polygon id="Fill-139" points="0 74.6077797 5 74.6077797 5 74.078661 0 74.078661"></polygon>
                    <polygon id="Fill-140" points="1.2405 76.9067797 1.7595 76.9067797 1.7595 71.779661 1.2405 71.779661"></polygon>
                    <polygon id="Fill-141" points="22 74.6077797 27 74.6077797 27 74.078661 22 74.078661"></polygon>
                    <polygon id="Fill-142" points="23.242 76.9067797 23.758 76.9067797 23.758 71.779661 23.242 71.779661"></polygon>
                    <polygon id="Fill-143" points="23.242 33.8389831 23.758 33.8389831 23.758 28.7118644 23.242 28.7118644"></polygon>
                    <polygon id="Fill-144" points="22 31.5415212 27 31.5415212 27 31.0093263 22 31.0093263"></polygon>
                    <polygon id="Fill-145" points="23.242 56.3983051 23.758 56.3983051 23.758 51.2711864 23.242 51.2711864"></polygon>
                    <polygon id="Fill-146" points="22 53.0738814 27 53.0738814 27 52.5447627 22 52.5447627"></polygon>
                    <polygon id="Fill-147" points="23.242 76.9067797 23.758 76.9067797 23.758 71.779661 23.242 71.779661"></polygon>
                    <polygon id="Fill-148" points="22 74.6077797 27 74.6077797 27 74.078661 22 74.078661"></polygon>
                    <polygon id="Fill-149" points="23.242 98.440678 23.758 98.440678 23.758 93.3135593 23.242 93.3135593"></polygon>
                    <polygon id="Fill-150" points="22 97.1686398 27 97.1686398 27 96.6364449 22 96.6364449"></polygon>
                    <polygon id="Fill-151" points="23.242 121 23.758 121 23.758 115.872881 23.242 115.872881"></polygon>
                    <polygon id="Fill-152" points="22 119.726424 27 119.726424 27 119.197305 22 119.197305"></polygon>
                    <polygon id="Fill-153" points="1.2405 33.8389831 1.7595 33.8389831 1.7595 28.7118644 1.2405 28.7118644"></polygon>
                    <polygon id="Fill-154" points="0 31.5415212 5 31.5415212 5 31.0093263 0 31.0093263"></polygon>
                    <polygon id="Fill-155" points="1.2405 56.3983051 1.7595 56.3983051 1.7595 51.2711864 1.2405 51.2711864"></polygon>
                    <polygon id="Fill-156" points="0 53.0738814 5 53.0738814 5 52.5447627 0 52.5447627"></polygon>
                    <polygon id="Fill-157" points="1.2405 76.9067797 1.7595 76.9067797 1.7595 71.779661 1.2405 71.779661"></polygon>
                    <polygon id="Fill-158" points="0 74.6077797 5 74.6077797 5 74.078661 0 74.078661"></polygon>
                    <polygon id="Fill-159" points="1.2405 98.440678 1.7595 98.440678 1.7595 93.3135593 1.2405 93.3135593"></polygon>
                    <polygon id="Fill-160" points="0 97.1686398 5 97.1686398 5 96.6364449 0 96.6364449"></polygon>
                    <polygon id="Fill-161" points="1.2405 121 1.7595 121 1.7595 115.872881 1.2405 115.872881"></polygon>
                    <polygon id="Fill-162" points="2.27373675e-13 119.726424 5 119.726424 5 119.197305 2.27373675e-13 119.197305"></polygon>
                    <polygon id="Fill-163" points="249.3095 3.07627119 249.6905 3.07627119 249.6905 0 249.3095 0"></polygon>
                    <polygon id="Fill-164" points="248 1.73347881 251 1.73347881 251 1.34279237 248 1.34279237"></polygon>
                    <polygon id="Fill-165" points="249.3095 18.4576271 249.6905 18.4576271 249.6905 15.3813559 249.3095 15.3813559"></polygon>
                    <polygon id="Fill-166" points="248 17.1148347 251 17.1148347 251 16.7241483 248 16.7241483"></polygon>
                    <polygon id="Fill-167" points="249.3095 34.8644068 249.6905 34.8644068 249.6905 31.7881356 249.3095 31.7881356"></polygon>
                    <polygon id="Fill-168" points="248 33.5216144 251 33.5216144 251 33.130928 248 33.130928"></polygon>
                    <polygon id="Fill-169" points="249.3095 51.2711864 249.6905 51.2711864 249.6905 48.1949153 249.3095 48.1949153"></polygon>
                    <polygon id="Fill-170" points="248 49.9283941 251 49.9283941 251 49.5377076 248 49.5377076"></polygon>
                    <polygon id="Fill-171" points="249.3095 67.6779661 249.6905 67.6779661 249.6905 64.6016949 249.3095 64.6016949"></polygon>
                    <polygon id="Fill-172" points="248 66.3351737 251 66.3351737 251 65.9444873 248 65.9444873"></polygon>
                    <polygon id="Fill-173" points="265.3095 3.07627119 265.6905 3.07627119 265.6905 -2.27373675e-13 265.3095 -2.27373675e-13"></polygon>
                    <polygon id="Fill-174" points="264 1.73347881 267 1.73347881 267 1.34279237 264 1.34279237"></polygon>
                    <polygon id="Fill-175" points="265.3095 18.4576271 265.6905 18.4576271 265.6905 15.3813559 265.3095 15.3813559"></polygon>
                    <polygon id="Fill-176" points="264 17.1148347 267 17.1148347 267 16.7241483 264 16.7241483"></polygon>
                    <polygon id="Fill-177" points="265.3095 34.8644068 265.6905 34.8644068 265.6905 31.7881356 265.3095 31.7881356"></polygon>
                    <polygon id="Fill-178" points="264 33.5216144 267 33.5216144 267 33.130928 264 33.130928"></polygon>
                    <polygon id="Fill-179" points="265.3095 51.2711864 265.6905 51.2711864 265.6905 48.1949153 265.3095 48.1949153"></polygon>
                    <polygon id="Fill-180" points="264 49.9283941 267 49.9283941 267 49.5377076 264 49.5377076"></polygon>
                    <polygon id="Fill-181" points="265.3095 67.6779661 265.6905 67.6779661 265.6905 64.6016949 265.3095 64.6016949"></polygon>
                    <polygon id="Fill-182" points="264 66.3351737 267 66.3351737 267 65.9444873 264 65.9444873"></polygon>
                    <polygon id="Fill-183" points="281.3095 3.07627119 281.6905 3.07627119 281.6905 -2.27373675e-13 281.3095 -2.27373675e-13"></polygon>
                    <polygon id="Fill-184" points="280 1.73347881 283 1.73347881 283 1.34279237 280 1.34279237"></polygon>
                    <polygon id="Fill-185" points="281.3095 18.4576271 281.6905 18.4576271 281.6905 15.3813559 281.3095 15.3813559"></polygon>
                    <polygon id="Fill-186" points="280 17.1148347 283 17.1148347 283 16.7241483 280 16.7241483"></polygon>
                    <polygon id="Fill-187" points="281.3095 34.8644068 281.6905 34.8644068 281.6905 31.7881356 281.3095 31.7881356"></polygon>
                    <polygon id="Fill-188" points="280 33.5216144 283 33.5216144 283 33.130928 280 33.130928"></polygon>
                    <polygon id="Fill-189" points="281.3095 51.2711864 281.6905 51.2711864 281.6905 48.1949153 281.3095 48.1949153"></polygon>
                    <polygon id="Fill-190" points="280 49.9283941 283 49.9283941 283 49.5377076 280 49.5377076"></polygon>
                    <polygon id="Fill-191" points="281.3095 67.6779661 281.6905 67.6779661 281.6905 64.6016949 281.3095 64.6016949"></polygon>
                    <polygon id="Fill-192" points="280 66.3351737 283 66.3351737 283 65.9444873 280 65.9444873"></polygon>
                    <polygon id="Fill-193" points="217 33.5216144 220 33.5216144 220 33.130928 217 33.130928"></polygon>
                    <polygon id="Fill-194" points="218.308 34.8644068 218.692 34.8644068 218.692 31.7881356 218.308 31.7881356"></polygon>
                    <polygon id="Fill-195" points="233 33.5216144 236 33.5216144 236 33.130928 233 33.130928"></polygon>
                    <polygon id="Fill-196" points="234.308 34.8644068 234.692 34.8644068 234.692 31.7881356 234.308 31.7881356"></polygon>
                    <polygon id="Fill-197" points="234.308 3.07627119 234.692 3.07627119 234.692 0 234.308 0"></polygon>
                    <polygon id="Fill-198" points="233 1.73347881 236 1.73347881 236 1.34279237 233 1.34279237"></polygon>
                    <polygon id="Fill-199" points="234.308 18.4576271 234.692 18.4576271 234.692 15.3813559 234.308 15.3813559"></polygon>
                    <polygon id="Fill-200" points="233 17.1148347 236 17.1148347 236 16.7241483 233 16.7241483"></polygon>
                    <polygon id="Fill-201" points="234.308 34.8644068 234.692 34.8644068 234.692 31.7881356 234.308 31.7881356"></polygon>
                    <polygon id="Fill-202" points="233 33.5216144 236 33.5216144 236 33.130928 233 33.130928"></polygon>
                    <polygon id="Fill-203" points="234.308 51.2711864 234.692 51.2711864 234.692 48.1949153 234.308 48.1949153"></polygon>
                    <polygon id="Fill-204" points="233 49.9283941 236 49.9283941 236 49.5377076 233 49.5377076"></polygon>
                    <polygon id="Fill-205" points="234.308 67.6779661 234.692 67.6779661 234.692 64.6016949 234.308 64.6016949"></polygon>
                    <polygon id="Fill-206" points="233 66.3351737 236 66.3351737 236 65.9444873 233 65.9444873"></polygon>
                    <polygon id="Fill-207" points="218.308 3.07627119 218.692 3.07627119 218.692 0 218.308 0"></polygon>
                    <polygon id="Fill-208" points="217 1.73347881 220 1.73347881 220 1.34279237 217 1.34279237"></polygon>
                    <polygon id="Fill-209" points="218.308 18.4576271 218.692 18.4576271 218.692 15.3813559 218.308 15.3813559"></polygon>
                    <polygon id="Fill-210" points="217 17.1148347 220 17.1148347 220 16.7241483 217 16.7241483"></polygon>
                    <polygon id="Fill-211" points="218.308 34.8644068 218.692 34.8644068 218.692 31.7881356 218.308 31.7881356"></polygon>
                    <polygon id="Fill-212" points="217 33.5216144 220 33.5216144 220 33.130928 217 33.130928"></polygon>
                    <polygon id="Fill-213" points="218.308 51.2711864 218.692 51.2711864 218.692 48.1949153 218.308 48.1949153"></polygon>
                    <polygon id="Fill-214" points="217 49.9283941 220 49.9283941 220 49.5377076 217 49.5377076"></polygon>
                    <polygon id="Fill-215" points="218.308 67.6779661 218.692 67.6779661 218.692 64.6016949 218.308 64.6016949"></polygon>
                    <polygon id="Fill-216" points="217 66.3351737 220 66.3351737 220 65.9444873 217 65.9444873"></polygon>
                    <polygon id="Fill-217" points="248.3095 3.07627119 248.6905 3.07627119 248.6905 0 248.3095 0"></polygon>
                    <polygon id="Fill-218" points="247 1.73347881 250 1.73347881 250 1.34279237 247 1.34279237"></polygon>
                    <polygon id="Fill-219" points="248.3095 18.4576271 248.6905 18.4576271 248.6905 15.3813559 248.3095 15.3813559"></polygon>
                    <polygon id="Fill-220" points="247 17.1148347 250 17.1148347 250 16.7241483 247 16.7241483"></polygon>
                    <polygon id="Fill-221" points="248.3095 34.8644068 248.6905 34.8644068 248.6905 31.7881356 248.3095 31.7881356"></polygon>
                    <polygon id="Fill-222" points="247 33.5216144 250 33.5216144 250 33.130928 247 33.130928"></polygon>
                    <polygon id="Fill-223" points="248.3095 51.2711864 248.6905 51.2711864 248.6905 48.1949153 248.3095 48.1949153"></polygon>
                    <polygon id="Fill-224" points="247 49.9283941 250 49.9283941 250 49.5377076 247 49.5377076"></polygon>
                    <polygon id="Fill-225" points="248.3095 67.6779661 248.6905 67.6779661 248.6905 64.6016949 248.3095 64.6016949"></polygon>
                    <polygon id="Fill-226" points="247 66.3351737 250 66.3351737 250 65.9444873 247 65.9444873"></polygon>
                    <polygon id="Fill-227" points="265.3095 3.07627119 265.6905 3.07627119 265.6905 -2.27373675e-13 265.3095 -2.27373675e-13"></polygon>
                    <polygon id="Fill-228" points="264 1.73347881 267 1.73347881 267 1.34279237 264 1.34279237"></polygon>
                    <polygon id="Fill-229" points="265.3095 18.4576271 265.6905 18.4576271 265.6905 15.3813559 265.3095 15.3813559"></polygon>
                    <polygon id="Fill-230" points="264 17.1148347 267 17.1148347 267 16.7241483 264 16.7241483"></polygon>
                    <polygon id="Fill-231" points="265.3095 34.8644068 265.6905 34.8644068 265.6905 31.7881356 265.3095 31.7881356"></polygon>
                    <polygon id="Fill-232" points="264 33.5216144 267 33.5216144 267 33.130928 264 33.130928"></polygon>
                    <polygon id="Fill-233" points="265.3095 51.2711864 265.6905 51.2711864 265.6905 48.1949153 265.3095 48.1949153"></polygon>
                    <polygon id="Fill-234" points="264 49.9283941 267 49.9283941 267 49.5377076 264 49.5377076"></polygon>
                    <polygon id="Fill-235" points="265.3095 67.6779661 265.6905 67.6779661 265.6905 64.6016949 265.3095 64.6016949"></polygon>
                    <polygon id="Fill-236" points="264 66.3351737 267 66.3351737 267 65.9444873 264 65.9444873"></polygon>
                    <polygon id="Fill-237" points="280.3095 3.07627119 280.6905 3.07627119 280.6905 -2.27373675e-13 280.3095 -2.27373675e-13"></polygon>
                    <polygon id="Fill-238" points="279 1.73347881 282 1.73347881 282 1.34279237 279 1.34279237"></polygon>
                    <polygon id="Fill-239" points="280.3095 18.4576271 280.6905 18.4576271 280.6905 15.3813559 280.3095 15.3813559"></polygon>
                    <polygon id="Fill-240" points="279 17.1148347 282 17.1148347 282 16.7241483 279 16.7241483"></polygon>
                    <polygon id="Fill-241" points="280.3095 34.8644068 280.6905 34.8644068 280.6905 31.7881356 280.3095 31.7881356"></polygon>
                    <polygon id="Fill-242" points="279 33.5216144 282 33.5216144 282 33.130928 279 33.130928"></polygon>
                    <polygon id="Fill-243" points="280.3095 51.2711864 280.6905 51.2711864 280.6905 48.1949153 280.3095 48.1949153"></polygon>
                    <polygon id="Fill-244" points="279 49.9283941 282 49.9283941 282 49.5377076 279 49.5377076"></polygon>
                    <polygon id="Fill-245" points="280.3095 67.6779661 280.6905 67.6779661 280.6905 64.6016949 280.3095 64.6016949"></polygon>
                    <polygon id="Fill-246" points="279 66.3351737 282 66.3351737 282 65.9444873 279 65.9444873"></polygon>
                    <polygon id="Fill-247" points="215 33.5216144 218 33.5216144 218 33.130928 215 33.130928"></polygon>
                    <polygon id="Fill-248" points="216.3095 34.8644068 216.6905 34.8644068 216.6905 31.7881356 216.3095 31.7881356"></polygon>
                    <polygon id="Fill-249" points="232 33.5216144 235 33.5216144 235 33.130928 232 33.130928"></polygon>
                    <polygon id="Fill-250" points="233.3095 34.8644068 233.6905 34.8644068 233.6905 31.7881356 233.3095 31.7881356"></polygon>
                    <polygon id="Fill-251" points="233.3095 3.07627119 233.6905 3.07627119 233.6905 0 233.3095 0"></polygon>
                    <polygon id="Fill-252" points="232 1.73347881 235 1.73347881 235 1.34279237 232 1.34279237"></polygon>
                    <polygon id="Fill-253" points="233.3095 18.4576271 233.6905 18.4576271 233.6905 15.3813559 233.3095 15.3813559"></polygon>
                    <polygon id="Fill-254" points="232 17.1148347 235 17.1148347 235 16.7241483 232 16.7241483"></polygon>
                    <polygon id="Fill-255" points="233.3095 34.8644068 233.6905 34.8644068 233.6905 31.7881356 233.3095 31.7881356"></polygon>
                    <polygon id="Fill-256" points="232 33.5216144 235 33.5216144 235 33.130928 232 33.130928"></polygon>
                    <polygon id="Fill-257" points="233.3095 51.2711864 233.6905 51.2711864 233.6905 48.1949153 233.3095 48.1949153"></polygon>
                    <polygon id="Fill-258" points="232 49.9283941 235 49.9283941 235 49.5377076 232 49.5377076"></polygon>
                    <polygon id="Fill-259" points="233.3095 67.6779661 233.6905 67.6779661 233.6905 64.6016949 233.3095 64.6016949"></polygon>
                    <polygon id="Fill-260" points="232 66.3351737 235 66.3351737 235 65.9444873 232 65.9444873"></polygon>
                    <polygon id="Fill-261" points="216.3095 3.07627119 216.6905 3.07627119 216.6905 0 216.3095 0"></polygon>
                    <polygon id="Fill-262" points="215 1.73347881 218 1.73347881 218 1.34279237 215 1.34279237"></polygon>
                    <polygon id="Fill-263" points="216.3095 18.4576271 216.6905 18.4576271 216.6905 15.3813559 216.3095 15.3813559"></polygon>
                    <polygon id="Fill-264" points="215 17.1148347 218 17.1148347 218 16.7241483 215 16.7241483"></polygon>
                    <polygon id="Fill-265" points="216.3095 34.8644068 216.6905 34.8644068 216.6905 31.7881356 216.3095 31.7881356"></polygon>
                    <polygon id="Fill-266" points="215 33.5216144 218 33.5216144 218 33.130928 215 33.130928"></polygon>
                    <polygon id="Fill-267" points="216.3095 51.2711864 216.6905 51.2711864 216.6905 48.1949153 216.3095 48.1949153"></polygon>
                    <polygon id="Fill-268" points="215 49.9283941 218 49.9283941 218 49.5377076 215 49.5377076"></polygon>
                    <polygon id="Fill-269" points="216.3095 67.6779661 216.6905 67.6779661 216.6905 64.6016949 216.3095 64.6016949"></polygon>
                    <polygon id="Fill-270" points="215 66.3351737 218 66.3351737 218 65.9444873 215 65.9444873"></polygon>
                    <polygon id="Fill-271" points="249.3095 3.07627119 249.6905 3.07627119 249.6905 0 249.3095 0"></polygon>
                    <polygon id="Fill-272" points="248 1.73347881 251 1.73347881 251 1.34279237 248 1.34279237"></polygon>
                    <polygon id="Fill-273" points="249.3095 18.4576271 249.6905 18.4576271 249.6905 15.3813559 249.3095 15.3813559"></polygon>
                    <polygon id="Fill-274" points="248 17.1148347 251 17.1148347 251 16.7241483 248 16.7241483"></polygon>
                    <polygon id="Fill-275" points="249.3095 34.8644068 249.6905 34.8644068 249.6905 31.7881356 249.3095 31.7881356"></polygon>
                    <polygon id="Fill-276" points="248 33.5216144 251 33.5216144 251 33.130928 248 33.130928"></polygon>
                    <polygon id="Fill-277" points="249.3095 51.2711864 249.6905 51.2711864 249.6905 48.1949153 249.3095 48.1949153"></polygon>
                    <polygon id="Fill-278" points="248 49.9283941 251 49.9283941 251 49.5377076 248 49.5377076"></polygon>
                    <polygon id="Fill-279" points="249.3095 67.6779661 249.6905 67.6779661 249.6905 64.6016949 249.3095 64.6016949"></polygon>
                    <polygon id="Fill-280" points="248 66.3351737 251 66.3351737 251 65.9444873 248 65.9444873"></polygon>
                    <polygon id="Fill-281" points="265.3095 3.07627119 265.6905 3.07627119 265.6905 -2.27373675e-13 265.3095 -2.27373675e-13"></polygon>
                    <polygon id="Fill-282" points="264 1.73347881 267 1.73347881 267 1.34279237 264 1.34279237"></polygon>
                    <polygon id="Fill-283" points="265.3095 18.4576271 265.6905 18.4576271 265.6905 15.3813559 265.3095 15.3813559"></polygon>
                    <polygon id="Fill-284" points="264 17.1148347 267 17.1148347 267 16.7241483 264 16.7241483"></polygon>
                    <polygon id="Fill-285" points="265.3095 34.8644068 265.6905 34.8644068 265.6905 31.7881356 265.3095 31.7881356"></polygon>
                    <polygon id="Fill-286" points="264 33.5216144 267 33.5216144 267 33.130928 264 33.130928"></polygon>
                    <polygon id="Fill-287" points="265.3095 51.2711864 265.6905 51.2711864 265.6905 48.1949153 265.3095 48.1949153"></polygon>
                    <polygon id="Fill-288" points="264 49.9283941 267 49.9283941 267 49.5377076 264 49.5377076"></polygon>
                    <polygon id="Fill-289" points="265.3095 67.6779661 265.6905 67.6779661 265.6905 64.6016949 265.3095 64.6016949"></polygon>
                    <polygon id="Fill-290" points="264 66.3351737 267 66.3351737 267 65.9444873 264 65.9444873"></polygon>
                    <polygon id="Fill-291" points="280.3095 3.07627119 280.6905 3.07627119 280.6905 -2.27373675e-13 280.3095 -2.27373675e-13"></polygon>
                    <polygon id="Fill-292" points="279 1.73347881 282 1.73347881 282 1.34279237 279 1.34279237"></polygon>
                    <polygon id="Fill-293" points="280.3095 18.4576271 280.6905 18.4576271 280.6905 15.3813559 280.3095 15.3813559"></polygon>
                    <polygon id="Fill-294" points="279 17.1148347 282 17.1148347 282 16.7241483 279 16.7241483"></polygon>
                    <polygon id="Fill-295" points="280.3095 34.8644068 280.6905 34.8644068 280.6905 31.7881356 280.3095 31.7881356"></polygon>
                    <polygon id="Fill-296" points="279 33.5216144 282 33.5216144 282 33.130928 279 33.130928"></polygon>
                    <polygon id="Fill-297" points="280.3095 51.2711864 280.6905 51.2711864 280.6905 48.1949153 280.3095 48.1949153"></polygon>
                    <polygon id="Fill-298" points="279 49.9283941 282 49.9283941 282 49.5377076 279 49.5377076"></polygon>
                    <polygon id="Fill-299" points="280.3095 67.6779661 280.6905 67.6779661 280.6905 64.6016949 280.3095 64.6016949"></polygon>
                    <polygon id="Fill-300" points="279 66.3351737 282 66.3351737 282 65.9444873 279 65.9444873"></polygon>
                    <polygon id="Fill-301" points="215 33.5216144 218 33.5216144 218 33.130928 215 33.130928"></polygon>
                    <polygon id="Fill-302" points="216.3095 34.8644068 216.6905 34.8644068 216.6905 31.7881356 216.3095 31.7881356"></polygon>
                    <polygon id="Fill-303" points="233 33.5216144 236 33.5216144 236 33.130928 233 33.130928"></polygon>
                    <polygon id="Fill-304" points="234.3095 34.8644068 234.6905 34.8644068 234.6905 31.7881356 234.3095 31.7881356"></polygon>
                    <polygon id="Fill-305" points="234.3095 3.07627119 234.6905 3.07627119 234.6905 0 234.3095 0"></polygon>
                    <polygon id="Fill-306" points="233 1.73347881 236 1.73347881 236 1.34279237 233 1.34279237"></polygon>
                    <polygon id="Fill-307" points="234.3095 18.4576271 234.6905 18.4576271 234.6905 15.3813559 234.3095 15.3813559"></polygon>
                    <polygon id="Fill-308" points="233 17.1148347 236 17.1148347 236 16.7241483 233 16.7241483"></polygon>
                    <polygon id="Fill-309" points="234.3095 34.8644068 234.6905 34.8644068 234.6905 31.7881356 234.3095 31.7881356"></polygon>
                    <polygon id="Fill-310" points="233 33.5216144 236 33.5216144 236 33.130928 233 33.130928"></polygon>
                    <polygon id="Fill-311" points="234.3095 51.2711864 234.6905 51.2711864 234.6905 48.1949153 234.3095 48.1949153"></polygon>
                    <polygon id="Fill-312" points="233 49.9283941 236 49.9283941 236 49.5377076 233 49.5377076"></polygon>
                    <polygon id="Fill-313" points="234.3095 67.6779661 234.6905 67.6779661 234.6905 64.6016949 234.3095 64.6016949"></polygon>
                    <polygon id="Fill-314" points="233 66.3351737 236 66.3351737 236 65.9444873 233 65.9444873"></polygon>
                    <polygon id="Fill-315" points="216.3095 3.07627119 216.6905 3.07627119 216.6905 0 216.3095 0"></polygon>
                    <polygon id="Fill-316" points="215 1.73347881 218 1.73347881 218 1.34279237 215 1.34279237"></polygon>
                    <polygon id="Fill-317" points="216.3095 18.4576271 216.6905 18.4576271 216.6905 15.3813559 216.3095 15.3813559"></polygon>
                    <polygon id="Fill-318" points="215 17.1148347 218 17.1148347 218 16.7241483 215 16.7241483"></polygon>
                    <polygon id="Fill-319" points="216.3095 34.8644068 216.6905 34.8644068 216.6905 31.7881356 216.3095 31.7881356"></polygon>
                    <polygon id="Fill-320" points="215 33.5216144 218 33.5216144 218 33.130928 215 33.130928"></polygon>
                    <polygon id="Fill-321" points="216.3095 51.2711864 216.6905 51.2711864 216.6905 48.1949153 216.3095 48.1949153"></polygon>
                    <polygon id="Fill-322" points="215 49.9283941 218 49.9283941 218 49.5377076 215 49.5377076"></polygon>
                    <polygon id="Fill-323" points="216.3095 67.6779661 216.6905 67.6779661 216.6905 64.6016949 216.3095 64.6016949"></polygon>
                    <polygon id="Fill-324" points="215 66.3351737 218 66.3351737 218 65.9444873 215 65.9444873"></polygon>
                </g>
            </g>
        </g>
    </g>
</svg>