<?xml version="1.0" encoding="UTF-8"?>
<svg width="222px" height="75px" viewBox="0 0 222 75" version="1.1" xmlns="http://www.w3.org/2000/svg" xmlns:xlink="http://www.w3.org/1999/xlink">
    <title>Shape</title>
    <g id="Page-1" stroke="none" stroke-width="1" fill="none" fill-rule="evenodd" opacity="0.150624">
        <g id="Desktop-HD" transform="translate(-1042.000000, -1951.000000)" fill="#FFFFFF">
            <g id="Group-3" transform="translate(1042.000000, 1951.000000)">
                <path d="M0,0 L222,0 L222,75 L0,75 L0,0 Z M184.312,38.755 L149.583982,73.4693878 L219.05,73.469 L184.312,38.755 Z M110.828,38.747 L76.0917657,73.4693878 L145.581,73.469 L110.828,38.747 Z M37.346,38.736 L2.59954937,73.4693878 L72.111,73.469 L37.346,38.736 Z M1.53,2.945 L1.53092995,72.3934128 L36.27,37.653 L1.53,2.945 Z M148.507,2.99 L148.507784,72.3934128 L183.228,37.672 L148.507,2.99 Z M75.015,2.968 L75.0155674,72.3934128 L109.743,37.665 L75.015,2.968 Z M73.462,2.636 L38.583982,37.4924227 L73.462,72.363 L73.462,2.636 Z M146.939,2.644 L112.076198,37.4924227 L146.939,72.355 L146.939,2.644 Z M220.401,2.681 L185.568415,37.4924227 L220.401,72.318 L220.401,2.681 Z M219.325,1.59 L149.658,1.59 L184.492216,36.4164478 L219.325,1.59 Z M145.833,1.59 L76.166,1.59 L111,36.4164478 L145.833,1.59 Z M72.333,1.59 L2.674,1.59 L37.5077837,36.4164478 L72.333,1.59 Z" id="Shape"></path>
            </g>
        </g>
    </g>
</svg>