<?xml version="1.0" encoding="UTF-8"?>
<svg width="171px" height="180px" viewBox="0 0 171 180" version="1.1" xmlns="http://www.w3.org/2000/svg" xmlns:xlink="http://www.w3.org/1999/xlink">
    <title>Shape</title>
    <g id="Page-1" stroke="none" stroke-width="1" fill="none" fill-rule="evenodd" opacity="0.150624">
        <g id="Desktop-HD" transform="translate(-1149.000000, -3029.000000)" fill="#D8D8D8">
            <g id="Group-3" transform="translate(1042.000000, 1951.000000)">
                <path d="M275.260826,1166 L275.452053,1166.00682 C276.024995,1166.04778 276.587993,1166.2737 277.051559,1166.69572 L277.202276,1166.84366 L277.347875,1167.01001 C277.716866,1167.46579 277.931463,1168.0159 277.986746,1168.58227 L278,1168.79527 L278,1168.9884 L277.986746,1169.19865 C277.931463,1169.75852 277.716866,1170.30863 277.347875,1170.77092 L277.202276,1170.94001 L195.661401,1257.15634 L195.513074,1257.30199 C195.06165,1257.71336 194.507528,1257.94492 193.941994,1257.9913 L193.729563,1258 L193.538567,1257.99294 C192.96699,1257.9506 192.411205,1257.71774 191.955438,1257.29436 L191.807335,1257.14617 L191.678386,1257.0028 C190.773871,1255.92575 190.773871,1254.29993 191.678386,1253.2058 L191.807335,1253.05999 L273.338599,1166.8335 C273.867212,1166.27444 274.568825,1166 275.260826,1166 Z M272.285426,1144 L272.474769,1144.00698 C273.042068,1144.04889 273.599522,1144.27935 274.058522,1144.69837 L274.207754,1144.84502 L274.334293,1144.98812 C275.221902,1146.0625 275.221902,1147.67119 274.334293,1148.73712 L274.207754,1148.87901 L174.627385,1254.16504 L174.478153,1254.30919 C174.024819,1254.71632 173.475448,1254.94549 172.915407,1254.99139 L172.705057,1255 L172.515722,1254.99302 C171.95549,1254.95171 171.405427,1254.72705 170.955921,1254.32437 L170.792246,1254.16504 L170.665707,1254.02073 C169.778098,1252.93787 169.778098,1251.32844 170.665707,1250.25403 L170.792246,1250.11093 L270.382132,1144.84502 C270.905538,1144.28167 271.60024,1144 272.285426,1144 Z M268.303493,1198 L268.491576,1198.00696 C269.048142,1198.04818 269.595168,1198.27262 270.047856,1198.68029 L270.213026,1198.84175 L270.338724,1198.98429 C271.220425,1200.05452 271.220425,1201.65733 270.338724,1202.72757 L270.213026,1202.87011 L225.594224,1250.16827 L225.446205,1250.31187 C224.997152,1250.71742 224.45775,1250.9457 223.902823,1250.99142 L223.694144,1251 L223.506281,1250.99305 C222.950978,1250.95189 222.410264,1250.72811 221.958964,1250.327 L221.794063,1250.16827 L221.667234,1250.02453 C220.777589,1248.94586 220.777589,1247.34268 221.667234,1246.27243 L221.794063,1246.12989 L266.412866,1198.84175 C266.932788,1198.28058 267.622867,1198 268.303493,1198 Z M266.269015,1126 L266.459949,1126.007 C267.024331,1126.04849 267.573885,1126.27406 268.032564,1126.67839 L268.20016,1126.83838 L268.327912,1126.98327 C269.224029,1128.07056 269.224029,1129.68621 268.327912,1130.75652 L268.20016,1130.89899 L156.664532,1248.16162 L156.516259,1248.30636 C156.064996,1248.71516 155.511073,1248.94527 154.945742,1248.99135 L154.733387,1249 L154.542229,1248.993 C153.976563,1248.95151 153.420594,1248.72594 152.960505,1248.32161 L152.792634,1248.16162 L152.666033,1248.01793 C151.777989,1246.93912 151.777989,1245.3231 152.666033,1244.2358 L152.792634,1244.09091 L264.328263,1126.83838 C264.866293,1126.28283 265.567654,1126 266.269015,1126 Z M256.289395,1111 L256.478619,1111.00698 C257.045522,1111.04889 257.602005,1111.27937 258.054305,1111.69842 L258.201085,1111.84508 L258.328689,1111.98819 C259.22377,1113.06265 259.22377,1114.67145 258.328689,1115.73745 L258.201085,1115.87935 L142.615162,1238.15492 L142.468383,1238.30158 C142.021667,1238.71546 141.473324,1238.94539 140.913688,1238.99138 L140.703472,1239 L140.514248,1238.99302 C139.947345,1238.95111 139.390861,1238.72063 138.938561,1238.30158 L138.791782,1238.15492 L138.665317,1238.01181 C137.778228,1236.93734 137.778228,1235.32817 138.665317,1234.25369 L138.791782,1234.11059 L254.377704,1111.84508 C254.910315,1111.28169 255.595099,1111 256.289395,1111 Z M245.280491,1098 L245.468466,1098.00702 C246.025365,1098.04856 246.578289,1098.27447 247.036366,1098.6794 L247.203521,1098.83963 L247.330736,1098.98474 C248.223088,1100.07365 248.223088,1101.6917 247.330736,1102.76361 L247.203521,1102.90629 L130.644931,1226.16037 L130.497281,1226.30533 C130.047915,1226.71473 129.496319,1226.94518 128.933364,1226.99134 L128.721901,1227 L128.531547,1226.99298 C127.968258,1226.95144 127.414624,1226.72553 126.956469,1226.3206 L126.789303,1226.16037 L126.663234,1226.01526 C125.778922,1224.92634 125.778922,1223.30791 126.663234,1222.22749 L126.789303,1222.08359 L243.357461,1098.83963 C243.883663,1098.28325 244.582077,1098 245.280491,1098 Z M231.289879,1088 L231.477205,1088.00702 C232.039119,1088.04911 232.596972,1088.28061 233.056766,1088.70151 L233.206271,1088.84883 L233.333047,1088.99257 C234.222318,1090.07181 234.222318,1091.68811 233.333047,1092.76735 L233.206271,1092.91109 L121.636047,1211.16127 L121.486536,1211.30608 C121.032354,1211.71504 120.481954,1211.94524 119.920864,1211.99135 L119.710121,1212 L119.520431,1211.99299 C118.952134,1211.95097 118.394282,1211.72015 117.94087,1211.30608 L117.793729,1211.16127 L117.666953,1211.01638 C116.777682,1209.92937 116.777682,1208.32122 117.666953,1207.2427 L117.793729,1207.09901 L229.373487,1088.84883 C229.897873,1088.28294 230.593876,1088 231.289879,1088 Z M214.285972,1081 L214.475936,1081.00699 C215.045052,1081.04893 215.603708,1081.27926 216.057774,1081.69246 L216.205126,1081.83696 L216.332085,1081.9804 C217.222638,1083.05737 217.222638,1084.67028 216.332085,1085.74725 L216.205126,1085.89068 L114.64273,1193.16304 L114.493003,1193.30981 C114.038166,1193.7233 113.486973,1193.94703 112.925074,1193.99165 L112.714028,1194 L112.524064,1193.99323 C111.954948,1193.9526 111.396292,1193.72847 110.942226,1193.30981 L110.794874,1193.16304 L110.667915,1193.01955 C109.777362,1191.94186 109.777362,1190.32082 110.667915,1189.2516 L110.794874,1189.10932 L212.366818,1081.83696 C212.89196,1081.28235 213.588966,1081 214.285972,1081 Z M193.285714,1078 C193.917749,1078 194.549784,1078.23277 195.053021,1078.6983 L195.2,1078.84494 L195.327778,1078.98682 C196.224074,1080.05267 196.224074,1081.66157 195.327778,1082.74432 L195.2,1082.8886 L111.619048,1171.15506 L111.472069,1171.3017 C111.024746,1171.71551 110.475659,1171.9454 109.915263,1171.99138 L109.704762,1172 L109.517649,1171.99302 C108.956417,1171.95112 108.399821,1171.72068 107.946971,1171.3017 L107.8,1171.15506 L107.672222,1171.01197 C106.775926,1169.93766 106.775926,1168.32839 107.672222,1167.24562 L107.8,1167.10134 L191.371429,1078.84494 L191.520554,1078.6983 C192.029516,1078.23277 192.65368,1078 193.285714,1078 Z M166.26834,1083 L166.459377,1083.00702 C167.031751,1083.04912 167.594193,1083.28068 168.057299,1083.7017 L168.207867,1083.84906 L168.334388,1083.99162 C169.221871,1085.06266 169.221871,1086.67939 168.334388,1087.76741 L168.207867,1087.9124 L116.666386,1142.17116 L116.516042,1142.31577 C116.059935,1142.72349 115.512061,1142.947 114.948418,1142.99164 L114.736461,1143 L114.545431,1142.99323 C113.973121,1142.95256 113.41133,1142.72858 112.954715,1142.31577 L112.806536,1142.17116 L112.677714,1142.02617 C111.774095,1140.93813 111.774095,1139.32103 112.677714,1138.24149 L112.806536,1138.09771 L164.338415,1083.84906 C164.876105,1083.28302 165.577023,1083 166.26834,1083 Z" id="Shape"></path>
            </g>
        </g>
    </g>
</svg>