<?xml version="1.0" encoding="UTF-8"?>
<svg width="78px" height="78px" viewBox="0 0 78 78" version="1.1" xmlns="http://www.w3.org/2000/svg" xmlns:xlink="http://www.w3.org/1999/xlink">
    <title>Shape</title>
    <g id="Page-1" stroke="none" stroke-width="1" fill="none" fill-rule="evenodd">
        <g id="Desktop-HD" transform="translate(-472.000000, -931.000000)" fill="#FFFFFF">
            <g id="Motifs" transform="translate(402.000000, 147.000000)">
                <path d="M108.758,788 L108.242,788 L108.242,786.759 L106,786.7595 L106,786.2405 L108.242,786.24 L108.242,784 L108.758,784 L108.758,786.24 L109.24,786.24 L109.2405,784 L109.7595,784 L109.759,786.24 L112,786.2405 L112,786.7595 L109.759,786.759 L109.7595,788 L109.2405,788 L109.24,786.759 L108.758,786.759 L108.758,788 Z M108.758,807 L108.242,807 L108.242,804.757 L106,804.758 L106,804.242 L108.242,804.241 L108.242,803 L108.758,803 L108.758,804.241 L109.24,804.241 L109.2405,803 L109.7595,803 L109.759,804.241 L112,804.242 L112,804.758 L109.759,804.757 L109.7595,807 L109.2405,807 L109.24,804.757 L108.758,804.757 L108.758,807 Z M108.758,825 L108.242,825 L108.242,822.757 L106,822.758 L106,822.242 L108.242,822.241 L108.242,821 L108.758,821 L108.758,822.241 L109.24,822.241 L109.2405,821 L109.7595,821 L109.759,822.241 L112,822.242 L112,822.758 L109.759,822.757 L109.7595,825 L109.2405,825 L109.24,822.757 L108.758,822.757 L108.758,825 Z M108.758,843 L108.242,843 L108.242,841.759 L106,841.7595 L106,841.2405 L108.242,841.24 L108.242,839 L108.758,839 L108.758,841.24 L109.24,841.24 L109.2405,839 L109.7595,839 L109.759,841.24 L112,841.2405 L112,841.7595 L109.759,841.759 L109.7595,843 L109.2405,843 L109.24,841.759 L108.758,841.759 L108.758,843 Z M108.758,862 L108.242,862 L108.242,860.758 L106,860.758 L106,860.242 L108.242,860.242 L108.242,858 L108.758,858 L108.758,860.242 L109.24,860.242 L109.2405,858 L109.7595,858 L109.759,860.242 L112,860.242 L112,860.758 L109.759,860.758 L109.7595,862 L109.2405,862 L109.24,860.758 L108.758,860.758 L108.758,862 Z M127.7595,784 L127.759,786.24 L130,786.2405 L130,786.7595 L127.759,786.759 L127.7595,788 L127.2405,788 L127.24,786.759 L125,786.7595 L125,786.2405 L127.24,786.24 L127.2405,784 L127.7595,784 Z M127.7595,803 L127.759,804.241 L130,804.242 L130,804.758 L127.759,804.757 L127.7595,807 L127.2405,807 L127.24,804.757 L125,804.758 L125,804.242 L127.24,804.241 L127.2405,803 L127.7595,803 Z M127.7595,821 L127.759,822.241 L130,822.242 L130,822.758 L127.759,822.757 L127.7595,825 L127.2405,825 L127.24,822.757 L125,822.758 L125,822.242 L127.24,822.241 L127.2405,821 L127.7595,821 Z M127.7595,839 L127.759,841.24 L130,841.2405 L130,841.7595 L127.759,841.759 L127.7595,843 L127.2405,843 L127.24,841.759 L125,841.7595 L125,841.2405 L127.24,841.24 L127.2405,839 L127.7595,839 Z M127.7595,858 L127.759,860.242 L130,860.242 L130,860.758 L127.759,860.758 L127.7595,862 L127.2405,862 L127.24,860.758 L125,860.758 L125,860.242 L127.24,860.242 L127.2405,858 L127.7595,858 Z M145.7595,788 L145.2405,788 L145.24,786.759 L144,786.7595 L144,786.2405 L145.24,786.24 L145.2405,784 L145.7595,784 L145.759,786.24 L146.242,786.24 L146.242,784 L146.758,784 L146.758,786.24 L148,786.2405 L148,786.7595 L146.758,786.759 L146.758,788 L146.242,788 L146.242,786.759 L145.759,786.759 L145.7595,788 Z M145.7595,807 L145.2405,807 L145.24,804.757 L144,804.758 L144,804.242 L145.24,804.241 L145.2405,803 L145.7595,803 L145.759,804.241 L146.242,804.241 L146.242,803 L146.758,803 L146.758,804.241 L148,804.242 L148,804.758 L146.758,804.757 L146.758,807 L146.242,807 L146.242,804.757 L145.759,804.757 L145.7595,807 Z M145.7595,825 L145.2405,825 L145.24,822.757 L144,822.758 L144,822.242 L145.24,822.241 L145.2405,821 L145.7595,821 L145.759,822.241 L146.242,822.241 L146.242,821 L146.758,821 L146.758,822.241 L148,822.242 L148,822.758 L146.758,822.757 L146.758,825 L146.242,825 L146.242,822.757 L145.759,822.757 L145.7595,825 Z M145.7595,843 L145.2405,843 L145.24,841.759 L144,841.7595 L144,841.2405 L145.24,841.24 L145.2405,839 L145.7595,839 L145.759,841.24 L146.242,841.24 L146.242,839 L146.758,839 L146.758,841.24 L148,841.2405 L148,841.7595 L146.758,841.759 L146.758,843 L146.242,843 L146.242,841.759 L145.759,841.759 L145.7595,843 Z M145.7595,862 L145.2405,862 L145.24,860.758 L144,860.758 L144,860.242 L145.24,860.242 L145.2405,858 L145.7595,858 L145.759,860.242 L146.242,860.242 L146.242,858 L146.758,858 L146.758,860.242 L148,860.242 L148,860.758 L146.758,860.758 L146.758,862 L146.242,862 L146.242,860.758 L145.759,860.758 L145.7595,862 Z M75,822.242 L75,822.758 L72.758,822.757 L72.758,825 L72.242,825 L72.242,822.757 L71.759,822.757 L71.7595,825 L71.2405,825 L71.24,822.757 L70,822.758 L70,822.242 L71.24,822.241 L71.2405,821 L71.7595,821 L71.759,822.241 L72.242,822.241 L72.242,821 L72.758,821 L72.758,822.241 L75,822.242 Z M90.758,821 L90.758,822.241 L91.241,822.241 L91.242,821 L91.758,821 L91.758,822.241 L93,822.242 L93,822.758 L91.758,822.757 L91.758,825 L91.242,825 L91.241,822.757 L90.758,822.757 L90.758,825 L90.242,825 L90.241,822.757 L89,822.758 L89,822.242 L90.241,822.241 L90.242,821 L90.758,821 Z M90.758,788 L90.242,788 L90.241,786.759 L89,786.7595 L89,786.2405 L90.241,786.24 L90.242,784 L90.758,784 L90.758,786.24 L91.241,786.24 L91.242,784 L91.758,784 L91.758,786.24 L93,786.2405 L93,786.7595 L91.758,786.759 L91.758,788 L91.242,788 L91.241,786.759 L90.758,786.759 L90.758,788 Z M90.758,807 L90.242,807 L90.241,804.757 L89,804.758 L89,804.242 L90.241,804.241 L90.242,803 L90.758,803 L90.758,804.241 L91.241,804.241 L91.242,803 L91.758,803 L91.758,804.241 L93,804.242 L93,804.758 L91.758,804.757 L91.758,807 L91.242,807 L91.241,804.757 L90.758,804.757 L90.758,807 Z M90.758,843 L90.242,843 L90.241,841.759 L89,841.7595 L89,841.2405 L90.241,841.24 L90.242,839 L90.758,839 L90.758,841.24 L91.241,841.24 L91.242,839 L91.758,839 L91.758,841.24 L93,841.2405 L93,841.7595 L91.758,841.759 L91.758,843 L91.242,843 L91.241,841.759 L90.758,841.759 L90.758,843 Z M90.758,862 L90.242,862 L90.241,860.758 L89,860.758 L89,860.242 L90.241,860.242 L90.242,858 L90.758,858 L90.758,860.242 L91.241,860.242 L91.242,858 L91.758,858 L91.758,860.242 L93,860.242 L93,860.758 L91.758,860.758 L91.758,862 L91.242,862 L91.241,860.758 L90.758,860.758 L90.758,862 Z M71.7595,788 L71.2405,788 L71.24,786.759 L70,786.7595 L70,786.2405 L71.24,786.24 L71.2405,784 L71.7595,784 L71.759,786.24 L72.242,786.24 L72.242,784 L72.758,784 L72.758,786.24 L75,786.2405 L75,786.7595 L72.758,786.759 L72.758,788 L72.242,788 L72.242,786.759 L71.759,786.759 L71.7595,788 Z M71.7595,807 L71.2405,807 L71.24,804.757 L70,804.758 L70,804.242 L71.24,804.241 L71.2405,803 L71.7595,803 L71.759,804.241 L72.242,804.241 L72.242,803 L72.758,803 L72.758,804.241 L75,804.242 L75,804.758 L72.758,804.757 L72.758,807 L72.242,807 L72.242,804.757 L71.759,804.757 L71.7595,807 Z M71.7595,843 L71.2405,843 L71.24,841.759 L70,841.7595 L70,841.2405 L71.24,841.24 L71.2405,839 L71.7595,839 L71.759,841.24 L72.242,841.24 L72.242,839 L72.758,839 L72.758,841.24 L75,841.2405 L75,841.7595 L72.758,841.759 L72.758,843 L72.242,843 L72.242,841.759 L71.759,841.759 L71.7595,843 Z M71.7595,862 L71.2405,862 L71.24,860.758 L70,860.758 L70,860.242 L71.24,860.242 L71.2405,858 L71.7595,858 L71.759,860.242 L72.242,860.242 L72.242,858 L72.758,858 L72.758,860.242 L75,860.242 L75,860.758 L72.758,860.758 L72.758,862 L72.242,862 L72.242,860.758 L71.759,860.758 L71.7595,862 Z" id="Shape"></path>
            </g>
        </g>
    </g>
</svg>